<svg width="24" height="24" viewBox="0 0 24 24" fill="none" xmlns="http://www.w3.org/2000/svg">
<path fill-rule="evenodd" clip-rule="evenodd" d="M9.29995 12.0001C9.29995 12.6076 8.80746 13.1001 8.19995 13.1001C7.59243 13.1001 7.09995 12.6076 7.09995 12.0001C7.09995 11.3926 7.59243 10.9001 8.19995 10.9001C8.80746 10.9001 9.29995 11.3926 9.29995 12.0001ZM13.0999 12.0001C13.0999 12.6076 12.6075 13.1001 11.9999 13.1001C11.3924 13.1001 10.8999 12.6076 10.8999 12.0001C10.8999 11.3926 11.3924 10.9001 11.9999 10.9001C12.6075 10.9001 13.0999 11.3926 13.0999 12.0001ZM15.7999 13.1001C16.4075 13.1001 16.8999 12.6076 16.8999 12.0001C16.8999 11.3926 16.4075 10.9001 15.7999 10.9001C15.1924 10.9001 14.6999 11.3926 14.6999 12.0001C14.6999 12.6076 15.1924 13.1001 15.7999 13.1001Z" fill="#171719"/>
<path fill-rule="evenodd" clip-rule="evenodd" d="M9.61102 2.3501H14.3889C15.476 2.35009 16.3467 2.35008 17.0504 2.40758C17.7731 2.46663 18.3987 2.59076 18.9745 2.88417C19.8965 3.35395 20.6461 4.10355 21.1159 5.02554C21.4093 5.60139 21.5334 6.22695 21.5925 6.94962C21.65 7.65339 21.65 8.52407 21.65 9.61115V14.3891C21.65 15.4761 21.65 16.3468 21.5925 17.0506C21.5334 17.7732 21.4093 18.3988 21.1159 18.9747C20.6461 19.8966 19.8965 20.6462 18.9745 21.116C18.3987 21.4094 17.7731 21.5336 17.0504 21.5926C16.3467 21.6501 15.476 21.6501 14.3889 21.6501H9.61102C8.52394 21.6501 7.65326 21.6501 6.94949 21.5926C6.22683 21.5336 5.60126 21.4094 5.02542 21.116C4.10343 20.6462 3.35382 19.8966 2.88404 18.9747C2.59064 18.3988 2.46651 17.7732 2.40746 17.0506C2.34996 16.3468 2.34997 15.4761 2.34998 14.389V9.61115C2.34997 8.52407 2.34996 7.65339 2.40746 6.94962C2.46651 6.22695 2.59064 5.60139 2.88404 5.02554C3.35382 4.10355 4.10343 3.35395 5.02542 2.88417C5.60126 2.59076 6.22683 2.46663 6.94949 2.40758C7.65326 2.35008 8.52394 2.35009 9.61102 2.3501ZM7.09607 4.20161C6.48472 4.25156 6.1224 4.34541 5.8426 4.48798C5.2593 4.78519 4.78506 5.25942 4.48785 5.84273C4.34529 6.12253 4.25143 6.48484 4.20148 7.09619C4.15067 7.71805 4.14997 8.51514 4.14997 9.6501V14.3501C4.14997 15.4851 4.15067 16.2821 4.20148 16.904C4.25143 17.5154 4.34529 17.8777 4.48785 18.1575C4.78506 18.7408 5.2593 19.215 5.8426 19.5122C6.1224 19.6548 6.48472 19.7486 7.09607 19.7986C7.71793 19.8494 8.51501 19.8501 9.64997 19.8501H14.35C15.4849 19.8501 16.282 19.8494 16.9039 19.7986C17.5152 19.7486 17.8775 19.6548 18.1573 19.5122C18.7406 19.215 19.2149 18.7408 19.5121 18.1575C19.6546 17.8777 19.7485 17.5154 19.7985 16.904C19.8493 16.2821 19.85 15.4851 19.85 14.3501V9.6501C19.85 8.51514 19.8493 7.71805 19.7985 7.09619C19.7485 6.48484 19.6546 6.12253 19.5121 5.84273C19.2149 5.25942 18.7406 4.78519 18.1573 4.48798C17.8775 4.34541 17.5152 4.25156 16.9039 4.20161C16.282 4.1508 15.4849 4.1501 14.35 4.1501H9.64997C8.51501 4.1501 7.71793 4.1508 7.09607 4.20161Z" fill="#171719"/>
</svg>
