<svg width="24" height="24" viewBox="0 0 24 24" fill="none" xmlns="http://www.w3.org/2000/svg">
<path fill-rule="evenodd" clip-rule="evenodd" d="M12.0001 3.89998C7.52659 3.89998 3.9001 7.52647 3.9001 12C3.9001 16.4735 7.52659 20.1 12.0001 20.1C16.4736 20.1 20.1001 16.4735 20.1001 12C20.1001 7.52647 16.4736 3.89998 12.0001 3.89998ZM2.1001 12C2.1001 6.53236 6.53247 2.09998 12.0001 2.09998C17.4677 2.09998 21.9001 6.53236 21.9001 12C21.9001 17.4676 17.4677 21.9 12.0001 21.9C6.53247 21.9 2.1001 17.4676 2.1001 12Z" fill="#171719"/>
<path d="M13.0001 16.5C13.0001 17.0523 12.5524 17.5 12.0001 17.5C11.4478 17.5 11.0001 17.0523 11.0001 16.5C11.0001 15.9477 11.4478 15.5 12.0001 15.5C12.5524 15.5 13.0001 15.9477 13.0001 16.5Z" fill="#171719"/>
<path fill-rule="evenodd" clip-rule="evenodd" d="M11.8648 6.6025C12.4372 6.58112 13.0087 6.69564 13.5251 6.93867C14.0416 7.18182 14.4901 7.54782 14.8205 8.00864C15.1514 8.47013 15.3511 9.00946 15.3922 9.57446C15.4333 10.1396 15.3136 10.7017 15.05 11.2041C14.7868 11.7059 14.3915 12.1271 13.9108 12.4335L13.9034 12.4382L13.8959 12.4428C13.5771 12.6374 13.3205 12.8934 13.1409 13.1848C12.9654 13.4697 12.8669 13.7825 12.848 14.0992V14.375H11.048V14.0528L11.0491 14.0307C11.0803 13.3971 11.2738 12.7837 11.6085 12.2405C11.9411 11.7007 12.4024 11.2474 12.9494 10.9117C13.1744 10.7669 13.3461 10.5775 13.456 10.3679C13.5665 10.1573 13.6132 9.92948 13.5969 9.70505C13.5806 9.48044 13.5009 9.25723 13.3577 9.05746C13.2139 8.85701 13.0097 8.68553 12.7585 8.56728C12.507 8.44892 12.2219 8.39042 11.9319 8.40125C11.642 8.41208 11.3644 8.49157 11.1266 8.62699C10.8891 8.76223 10.7032 8.94615 10.5794 9.15378C10.4561 9.36066 10.3966 9.58699 10.4002 9.81174L8.60048 9.84082C8.59133 9.27429 8.74263 8.71978 9.03322 8.23223C9.32335 7.74543 9.74033 7.34497 10.236 7.06276C10.7313 6.78072 11.2923 6.62388 11.8648 6.6025Z" fill="#171719"/>
</svg>
