<svg width="24" height="24" viewBox="0 0 24 24" fill="none" xmlns="http://www.w3.org/2000/svg">
<path fill-rule="evenodd" clip-rule="evenodd" d="M18.6708 2.6074C18.2892 2.48341 17.8781 2.48341 17.4965 2.6074C17.2244 2.69583 17.014 2.84625 16.8439 2.99066C16.6879 3.1231 16.5168 3.29426 16.337 3.4741L16.3159 3.49517L3.10034 16.7107V20.9002H7.2898L20.5054 7.68462L20.5264 7.66358C20.7062 7.48377 20.8774 7.31263 21.0099 7.15663C21.1543 6.98651 21.3047 6.77615 21.3931 6.50399C21.5171 6.12239 21.5171 5.71133 21.3931 5.32973C21.3047 5.05756 21.1543 4.8472 21.0099 4.67709C20.8774 4.52109 20.7063 4.34996 20.5264 4.17016L19.8304 3.47412C19.6506 3.29427 19.4794 3.1231 19.3234 2.99066C19.1533 2.84625 18.943 2.69583 18.6708 2.6074ZM18.0129 4.34368C18.052 4.30463 18.1153 4.30463 18.1544 4.34368L19.6568 5.84613C19.6959 5.88519 19.6959 5.9485 19.6568 5.98755L6.5442 19.1002H4.90033V17.4563L18.0129 4.34368Z" fill="#171719"/>
</svg>
