<svg width="24" height="24" viewBox="0 0 24 24" fill="none" xmlns="http://www.w3.org/2000/svg">
<path fill-rule="evenodd" clip-rule="evenodd" d="M9.6079 2.06574C10.3773 1.89163 11.1782 1.7998 12 1.7998C12.8219 1.7998 13.6229 1.89165 14.3923 2.06578C15.2889 2.26868 15.7253 3.04131 15.896 3.58605C16.0284 4.00838 16.3216 4.39132 16.7623 4.6377C17.1752 4.86852 17.6404 4.93603 18.0796 4.85837C18.645 4.75841 19.5008 4.80625 20.0798 5.48269C20.8159 6.3426 21.4104 7.32341 21.8264 8.39142C22.2105 9.37777 21.6424 10.2545 21.17 10.6938C20.8085 11.0301 20.5922 11.493 20.5922 11.9998C20.5922 12.5066 20.8085 12.9694 21.17 13.3057C21.6424 13.7451 22.2105 14.6218 21.8264 15.6081C21.4105 16.6758 20.8163 17.6564 20.0805 18.5161C19.5014 19.1928 18.6453 19.2406 18.0799 19.1405C17.6406 19.0628 17.1752 19.1303 16.7623 19.3611C16.3214 19.6076 16.0282 19.9907 15.8959 20.4131C15.7252 20.958 15.2888 21.731 14.392 21.9339C13.6226 22.108 12.8218 22.1998 12 22.1998C11.1782 22.1998 10.3773 22.108 9.60793 21.9339C8.71134 21.731 8.27489 20.9583 8.10414 20.4136C7.97177 19.9912 7.67858 19.6083 7.23786 19.3619C6.82498 19.1311 6.35971 19.0636 5.92047 19.1412C5.3551 19.2412 4.49931 19.1934 3.92024 18.5169C3.18414 17.657 2.58968 16.6763 2.17371 15.6083C1.78951 14.6219 2.35767 13.7451 2.83011 13.3058C3.19171 12.9695 3.408 12.5066 3.408 11.9998C3.408 11.4929 3.19172 11.0301 2.83012 10.6938C2.35768 10.2544 1.78952 9.37768 2.17373 8.39128C2.58969 7.32336 3.18411 6.34263 3.92016 5.48277C4.49923 4.80629 5.35504 4.75847 5.92041 4.85846C6.35966 4.93614 6.82493 4.86863 7.23781 4.6378C7.67855 4.39141 7.97174 4.00845 8.10411 3.5861C8.27485 3.04133 8.7113 2.26864 9.6079 2.06574ZM10.0441 3.9151C10.0405 3.91842 10.0355 3.92356 10.029 3.93117C9.9958 3.97007 9.95153 4.04463 9.91715 4.15433C9.64184 5.03276 9.03592 5.80932 8.16497 6.29623C7.35289 6.75023 6.44065 6.87994 5.58954 6.72942C5.48815 6.71149 5.41127 6.7168 5.36829 6.72711C5.36117 6.72881 5.35591 6.73038 5.35218 6.73164C4.76176 7.42428 4.28646 8.20934 3.95252 9.05952C3.95379 9.06397 3.9557 9.06988 3.95854 9.07742C3.97903 9.13177 4.0317 9.21659 4.12406 9.30249C4.84839 9.97614 5.308 10.9335 5.308 11.9998C5.308 13.0661 4.84838 14.0234 4.12404 14.6971C4.03168 14.783 3.97901 14.8678 3.95852 14.9222C3.95568 14.9297 3.95377 14.9356 3.9525 14.94C4.28645 15.7903 4.76179 16.5754 5.35225 17.268C5.35597 17.2693 5.36124 17.2709 5.36835 17.2726C5.41133 17.2829 5.48821 17.2882 5.5896 17.2703C6.4407 17.1197 7.35294 17.2495 8.16501 17.7035C9.03594 18.1904 9.64185 18.9669 9.91717 19.8453C9.95155 19.955 9.99582 20.0295 10.029 20.0684C10.0355 20.0761 10.0405 20.0812 10.0441 20.0845C10.6715 20.2252 11.3261 20.2998 12 20.2998C12.6739 20.2998 13.3285 20.2252 13.9558 20.0845C13.9594 20.0812 13.9644 20.0761 13.9709 20.0685C14.0041 20.0295 14.0484 19.955 14.0828 19.8452C14.358 18.9665 14.964 18.1897 15.8351 17.7027C16.6473 17.2486 17.5597 17.119 18.4109 17.2696C18.5124 17.2875 18.5893 17.2822 18.6322 17.2719C18.6394 17.2702 18.6446 17.2686 18.6484 17.2674C19.2386 16.5748 19.7137 15.7899 20.0476 14.9399C20.0463 14.9355 20.0444 14.9296 20.0416 14.922C20.0211 14.8677 19.9684 14.7829 19.8761 14.697C19.1518 14.0233 18.6922 13.066 18.6922 11.9998C18.6922 10.9336 19.1518 9.97623 19.876 9.3026C19.9684 9.2167 20.0211 9.13188 20.0415 9.07753C20.0444 9.07 20.0463 9.06409 20.0476 9.05964C19.7136 8.20939 19.2383 7.42426 18.6478 6.73158C18.6441 6.73032 18.6388 6.72874 18.6317 6.72704C18.5887 6.71674 18.5118 6.71143 18.4105 6.72935C17.5594 6.87983 16.6472 6.7501 15.8352 6.29613C14.9643 5.80924 14.3583 5.03273 14.083 4.15434C14.0486 4.04465 14.0044 3.9701 13.9712 3.9312C13.9647 3.92359 13.9596 3.91845 13.9561 3.91513C13.3287 3.77442 12.674 3.6998 12 3.6998C11.3261 3.6998 10.6715 3.77441 10.0441 3.9151ZM20.05 9.04879C20.05 9.04879 20.05 9.04917 20.0498 9.04997L20.05 9.04879ZM3.95008 14.9509C3.95007 14.9509 3.95009 14.9505 3.95022 14.9497L3.95008 14.9509ZM8.05016 11.9998C8.05016 9.81828 9.81863 8.0498 12.0002 8.0498C14.1817 8.0498 15.9502 9.81828 15.9502 11.9998C15.9502 14.1813 14.1817 15.9498 12.0002 15.9498C9.81863 15.9498 8.05016 14.1813 8.05016 11.9998ZM12.0002 9.9498C10.868 9.9498 9.95016 10.8676 9.95016 11.9998C9.95016 13.132 10.868 14.0498 12.0002 14.0498C13.1323 14.0498 14.0502 13.132 14.0502 11.9998C14.0502 10.8676 13.1323 9.9498 12.0002 9.9498Z" fill="#171719"/>
</svg>
