<svg width="24" height="24" viewBox="0 0 24 24" fill="none" xmlns="http://www.w3.org/2000/svg">
<path fill-rule="evenodd" clip-rule="evenodd" d="M9.00012 3.39912H15.0001V1.59912H9.00012V3.39912ZM21.0001 6.89951H19.6507L19.6507 19.4293C19.6507 19.6836 19.6508 19.9257 19.6341 20.1296C19.6159 20.352 19.5735 20.6071 19.4436 20.8621C19.2615 21.2196 18.9708 21.5103 18.6133 21.6924C18.3583 21.8223 18.1032 21.8647 17.8808 21.8829C17.6769 21.8996 17.4348 21.8995 17.1805 21.8995H6.82095C6.56665 21.8995 6.32457 21.8996 6.12063 21.8829C5.89822 21.8647 5.64311 21.8223 5.38813 21.6924C5.03062 21.5103 4.73996 21.2196 4.5578 20.8621C4.42788 20.6071 4.3855 20.352 4.36733 20.1296C4.35066 19.9256 4.35068 19.6836 4.35071 19.4293L4.35071 6.89951H3.00012V5.09951H21.0001V6.89951ZM6.14988 6.89951H17.8499V19.999C17.8499 20.0542 17.8051 20.099 17.7499 20.099H6.24988C6.19465 20.099 6.14988 20.0542 6.14988 19.999V6.89951ZM13.1001 16.4995V10.4995H14.9001V16.4995H13.1001ZM9.10012 10.4995V16.4995H10.9001V10.4995H9.10012Z" fill="#171719"/>
</svg>
