<svg width="24" height="24" viewBox="0 0 24 24" fill="none" xmlns="http://www.w3.org/2000/svg">
<path fill-rule="evenodd" clip-rule="evenodd" d="M9.09945 20.1H14.8995V21.9H9.09945V20.1Z" fill="#171719"/>
<path fill-rule="evenodd" clip-rule="evenodd" d="M18.8999 9.4998V7.7998H20.4999V9.4998H22.1999V11.0998H20.4999V12.7998H18.8999V11.0998H17.1999V9.4998H18.8999Z" fill="#171719"/>
<path fill-rule="evenodd" clip-rule="evenodd" d="M6.6493 10.2501C6.6493 8.16524 7.17656 6.58299 8.06143 5.53695C8.92894 4.51142 10.2245 3.9001 11.9993 3.9001C13.7741 3.9001 15.0697 4.51142 15.9372 5.53695C16.2816 5.9441 16.5718 6.43249 16.7979 7.00014H18.7033C18.3989 5.99981 17.9369 5.11378 17.3114 4.37443C16.0539 2.88789 14.2246 2.1001 11.9993 2.1001C9.77407 2.1001 7.94467 2.88789 6.68718 4.37443C5.44704 5.84045 4.8493 7.88322 4.8493 10.2501L4.8493 11.0001C4.8493 13.4653 4.16607 14.9249 3.19295 15.8683C2.8114 16.2381 2.7718 16.7499 2.90819 17.1265C3.04689 17.5094 3.42699 17.9001 3.99886 17.9001H19.9998C20.5716 17.9001 20.9517 17.5094 21.0904 17.1265C21.2268 16.7499 21.1872 16.2381 20.8057 15.8683C20.3181 15.3957 19.9034 14.7935 19.6108 14.0002H17.7213C17.9437 14.7969 18.2624 15.4931 18.668 16.1001H5.33059C6.18116 14.8273 6.64931 13.1629 6.64931 11.0001L6.6493 10.2501Z" fill="#171719"/>
</svg>
