<svg width="24" height="24" viewBox="0 0 24 24" fill="none" xmlns="http://www.w3.org/2000/svg">
<path d="M3.39994 4.6001C2.62674 4.6001 1.99994 5.2269 1.99994 6.0001C1.99994 6.7733 2.62674 7.4001 3.39994 7.4001C4.17314 7.4001 4.79994 6.7733 4.79994 6.0001C4.79994 5.2269 4.17314 4.6001 3.39994 4.6001Z" fill="#171719"/>
<path d="M3.39994 16.6001C2.62674 16.6001 1.99994 17.2269 1.99994 18.0001C1.99994 18.7733 2.62674 19.4001 3.39994 19.4001C4.17314 19.4001 4.79994 18.7733 4.79994 18.0001C4.79994 17.2269 4.17314 16.6001 3.39994 16.6001Z" fill="#171719"/>
<path d="M1.99994 12.0001C1.99994 11.2269 2.62674 10.6001 3.39994 10.6001C4.17314 10.6001 4.79994 11.2269 4.79994 12.0001C4.79994 12.7733 4.17314 13.4001 3.39994 13.4001C2.62674 13.4001 1.99994 12.7733 1.99994 12.0001Z" fill="#171719"/>
<path d="M7.99993 5.1C7.50288 5.1 7.09993 5.50294 7.09993 6C7.09993 6.49706 7.50288 6.9 7.99993 6.9H20.9999C21.497 6.9 21.8999 6.49706 21.8999 6C21.8999 5.50294 21.497 5.1 20.9999 5.1H7.99993Z" fill="#171719"/>
<path d="M7.09993 18C7.09993 17.5029 7.50288 17.1 7.99993 17.1H20.9999C21.497 17.1 21.8999 17.5029 21.8999 18C21.8999 18.4971 21.497 18.9 20.9999 18.9H7.99993C7.50288 18.9 7.09993 18.4971 7.09993 18Z" fill="#171719"/>
<path d="M7.99993 11.1C7.50288 11.1 7.09993 11.5029 7.09993 12C7.09993 12.4971 7.50288 12.9 7.99993 12.9H20.9999C21.497 12.9 21.8999 12.4971 21.8999 12C21.8999 11.5029 21.497 11.1 20.9999 11.1H7.99993Z" fill="#171719"/>
</svg>
