<svg width="24" height="24" viewBox="0 0 24 24" fill="none" xmlns="http://www.w3.org/2000/svg">
<path fill-rule="evenodd" clip-rule="evenodd" d="M11.9996 7.35C9.29344 7.35 7.09963 9.5438 7.09963 12.25C7.09963 14.9562 9.29344 17.15 11.9996 17.15C14.7058 17.15 16.8996 14.9562 16.8996 12.25C16.8996 9.5438 14.7058 7.35 11.9996 7.35ZM8.89963 12.25C8.89963 10.5379 10.2876 9.15 11.9996 9.15C13.7117 9.15 15.0996 10.5379 15.0996 12.25C15.0996 13.9621 13.7117 15.35 11.9996 15.35C10.2876 15.35 8.89963 13.9621 8.89963 12.25Z" fill="#171719"/>
<path fill-rule="evenodd" clip-rule="evenodd" d="M10.1101 2.09992C9.58539 2.0994 9.14316 2.09897 8.7277 2.22515C8.36287 2.33596 8.02347 2.51762 7.72893 2.75975C7.39352 3.03547 7.14862 3.40369 6.85805 3.84058L6.01874 5.09999L5.16458 5.09999C4.63472 5.09997 4.18352 5.09996 3.81309 5.13022C3.42393 5.16202 3.04534 5.23165 2.68341 5.41607C2.13774 5.6941 1.69409 6.13774 1.41606 6.68341C1.23164 7.04535 1.16201 7.42394 1.13021 7.8131C1.09995 8.18353 1.09996 8.6347 1.09998 9.16455V16.8354C1.09996 17.3652 1.09995 17.8164 1.13021 18.1869C1.16201 18.576 1.23164 18.9546 1.41606 19.3166C1.69409 19.8622 2.13774 20.3059 2.68341 20.5839C3.04534 20.7683 3.42393 20.838 3.81309 20.8697C4.18352 20.9 4.63469 20.9 5.16455 20.9H18.8354C19.3652 20.9 19.8164 20.9 20.1869 20.8697C20.576 20.838 20.9546 20.7683 21.3165 20.5839C21.8622 20.3059 22.3059 19.8622 22.5839 19.3166C22.7683 18.9546 22.8379 18.576 22.8697 18.1869C22.9 17.8164 22.9 17.3653 22.9 16.8354V9.16458C22.9 8.63472 22.9 8.18353 22.8697 7.8131C22.8379 7.42394 22.7683 7.04535 22.5839 6.68341C22.3059 6.13774 21.8622 5.6941 21.3165 5.41607C20.9546 5.23165 20.576 5.16202 20.1869 5.13022C19.8164 5.09996 19.3653 5.09997 18.8354 5.09999L17.9821 5.09999L17.1419 3.83986C16.8513 3.40314 16.6063 3.03507 16.271 2.75946C15.9764 2.51744 15.6371 2.33585 15.2724 2.22509C14.857 2.09897 14.4149 2.0994 13.8903 2.09992L10.1101 2.09992ZM9.25081 3.94746C9.37693 3.90916 9.53053 3.89999 10.2128 3.89999H13.7876C14.4697 3.89999 14.6233 3.90915 14.7494 3.94744C14.8877 3.98945 15.0164 4.05833 15.1281 4.15013C15.23 4.2338 15.3228 4.35647 15.7012 4.92396L16.5142 6.14314L16.5316 6.16962C16.5937 6.26428 16.7115 6.44385 16.8792 6.58162C17.0213 6.69846 17.1852 6.78612 17.3612 6.83959C17.5689 6.90264 17.7836 6.90101 17.8968 6.90016L17.9286 6.89999H18.8C19.3749 6.89999 19.7519 6.90069 20.0403 6.92425C20.3181 6.94695 20.4335 6.98631 20.4994 7.01988C20.7063 7.12534 20.8746 7.29362 20.9801 7.5006C21.0137 7.56649 21.053 7.68183 21.0757 7.95968C21.0993 8.24803 21.1 8.62508 21.1 9.19999V16.8C21.1 17.3749 21.0993 17.7519 21.0757 18.0403C21.053 18.3181 21.0137 18.4335 20.9801 18.4994C20.8746 18.7064 20.7063 18.8746 20.4994 18.9801C20.4335 19.0137 20.3181 19.053 20.0403 19.0757C19.7519 19.0993 19.3749 19.1 18.8 19.1H5.19998C4.62507 19.1 4.24802 19.0993 3.95967 19.0757C3.68182 19.053 3.56648 19.0137 3.50059 18.9801C3.29361 18.8746 3.12533 18.7064 3.01987 18.4994C2.9863 18.4335 2.94694 18.3181 2.92424 18.0403C2.90068 17.7519 2.89998 17.3749 2.89998 16.8V9.19999C2.89998 8.62508 2.90068 8.24803 2.92424 7.95968C2.94694 7.68183 2.9863 7.56649 3.01987 7.5006C3.12533 7.29362 3.29361 7.12534 3.50059 7.01988C3.56648 6.98631 3.68182 6.94695 3.95967 6.92425C4.24802 6.90069 4.62507 6.89999 5.19998 6.89999H6.07226L6.10399 6.90016C6.21723 6.90101 6.43202 6.90264 6.6397 6.83956C6.81583 6.78607 6.97967 6.69837 7.12187 6.58148C7.28954 6.44365 7.40731 6.26401 7.4694 6.16931L7.48685 6.14282L8.29894 4.92439C8.67733 4.35667 8.77015 4.23394 8.87197 4.15024C8.98369 4.0584 9.11243 3.98949 9.25081 3.94746Z" fill="#171719"/>
</svg>
