<svg width="24" height="24" viewBox="0 0 24 24" fill="none" xmlns="http://www.w3.org/2000/svg">
<path fill-rule="evenodd" clip-rule="evenodd" d="M12.0001 2.09998C6.53248 2.09998 2.1001 6.53236 2.1001 12C2.1001 17.4676 6.53248 21.9 12.0001 21.9C17.4677 21.9 21.9001 17.4676 21.9001 12C21.9001 6.53236 17.4677 2.09998 12.0001 2.09998ZM12.0001 3.89998C7.52659 3.89998 3.9001 7.52647 3.9001 12C3.9001 16.4735 7.52659 20.1 12.0001 20.1C16.4736 20.1 20.1001 16.4735 20.1001 12C20.1001 7.52647 16.4736 3.89998 12.0001 3.89998ZM11.0001 7.99998C11.0001 7.44769 11.4478 6.99998 12.0001 6.99998C12.5524 6.99998 13.0001 7.44769 13.0001 7.99998C13.0001 8.55226 12.5524 8.99998 12.0001 8.99998C11.4478 8.99998 11.0001 8.55226 11.0001 7.99998ZM11.1001 10.5V17H12.9001V10.5H11.1001Z" fill="#171719"/>
</svg>
