<svg width="24" height="24" viewBox="0 0 24 24" fill="none" xmlns="http://www.w3.org/2000/svg">
<path fill-rule="evenodd" clip-rule="evenodd" d="M11.1 12.9V17H12.9V12.9H17V11.1H12.9V6.99998H11.1V11.1H6.99997V12.9H11.1Z" fill="#171719"/>
<path fill-rule="evenodd" clip-rule="evenodd" d="M12 3.89998C7.52646 3.89998 3.89997 7.52647 3.89997 12C3.89997 16.4735 7.52646 20.1 12 20.1C16.4735 20.1 20.1 16.4735 20.1 12C20.1 7.52647 16.4735 3.89998 12 3.89998ZM2.09998 12C2.09998 6.53236 6.53235 2.09998 12 2.09998C17.4676 2.09998 21.9 6.53236 21.9 12C21.9 17.4676 17.4676 21.9 12 21.9C6.53235 21.9 2.09998 17.4676 2.09998 12Z" fill="#171719"/>
</svg>
